<svg xmlns="http://www.w3.org/2000/svg" viewBox="0 0 24 24" enable-background="new 0 0 24 24" class="sc-dLMFU fNAsFu"><path fill-rule="evenodd" clip-rule="evenodd" d="M4.49878 18.2944C3.11778 18.2944 1.99878 19.4134 1.99878 20.7944C1.99878 22.1754 3.11778 23.2944 4.49878 23.2944C5.87978 23.2944 6.99878 22.1754 6.99878 20.7944C6.99878 19.4134 5.87978 18.2944 4.49878 18.2944Z" fill="#333333"></path><path fill-rule="evenodd" clip-rule="evenodd" d="M20.9988 18.3448V5.55528L22.4413 4.64641V2.29272L16.4138 6.03491V8.25313L18.9988 6.71223V12.9738L14.4838 19.2948H9.89778C9.43378 17.0148 7.41378 15.2948 4.99878 15.2948V17.2948C6.65278 17.2948 7.99878 18.6398 7.99878 20.2948C7.99878 20.8468 8.44678 21.2948 8.99878 21.2948H14.9988C15.3218 21.2948 15.6248 21.1388 15.8128 20.8758L18.9988 16.4148V18.8058C18.3948 19.2618 17.9988 19.9788 17.9988 20.7948C17.9988 22.1758 19.1178 23.2948 20.4988 23.2948C21.8798 23.2948 22.9988 22.1758 22.9988 20.7948C22.9988 19.5848 22.1398 18.5758 20.9988 18.3448Z" fill="#333333"></path></svg>