<svg xmlns="http://www.w3.org/2000/svg" viewBox="0 0 24 24" enable-background="new 0 0 24 24" class="sc-dLMFU fNAsFu"><path d="M18 3.7c-.6-.5-1-.8-1-1.7 0-1.1-.9-2-2-2H9C7.9 0 7 .9 7 2c0 .9-.3 1.2-1 1.7-.8.7-2 1.7-2 4.3v8c0 2.6 1.2 3.6 2 4.3.6.5 1 .8 1 1.7 0 1.1.9 2 2 2h6c1.1 0 2-.9 2-2 0-.9.3-1.2 1-1.7.9-.7 2-1.7 2-4.3V8c0-2.6-1.2-3.6-2-4.3zM18 8v8c0 .4 0 .7-.1 1H6.1c-.1-.3-.1-.6-.1-1V8c0-.4 0-.7.1-1h11.8c.1.3.1.6.1 1zM9 2h6c0 1.6.7 2.4 1.4 3H7.6C8.3 4.4 9 3.6 9 2zm6 20H9c0-1.6-.7-2.4-1.4-3h8.8c-.7.6-1.4 1.4-1.4 3z"></path></svg>