<svg xmlns="http://www.w3.org/2000/svg" viewBox="0 0 24 24" enable-background="new 0 0 24 24" class="sc-dLMFU fNAsFu"><path d="M18 9c-1.1 0-2.1.3-3 .8V8c0-.6-.4-1-1-1h-1V5c0-2.2-1.8-4-4-4H4v2h5c1.1 0 2 .9 2 2v2h-1c-.6 0-1 .4-1 1v1.8C8.1 9.3 7.1 9 6 9c-3.3 0-6 2.7-6 6s2.7 6 6 6c1.2 0 2.3-.3 3.3-1h5.4c1 .7 2.1 1 3.3 1 3.3 0 6-2.7 6-6s-2.7-6-6-6zm-7 0h2v1h-2V9zm7 10c-.9 0-1.7-.3-2.4-.8-.2-.1-.4-.2-.6-.2H9c-.2 0-.4.1-.6.2-.7.5-1.6.8-2.4.8-2.2 0-4-1.8-4-4s1.8-4 4-4c.8 0 1.7.3 2.4.8.1.1.4.2.6.2h6c.2 0 .4-.1.6-.2.7-.5 1.5-.8 2.4-.8 2.2 0 4 1.8 4 4s-1.8 4-4 4z"></path><circle cx="18" cy="13" r="1"></circle><circle cx="18" cy="17" r="1"></circle><circle cx="20" cy="15" r="1"></circle><circle cx="16" cy="15" r="1"></circle><path d="M7 12H5v2H3v2h2v2h2v-2h2v-2H7z"></path></svg>