<svg xmlns="http://www.w3.org/2000/svg" viewBox="0 0 24 24" enable-background="new 0 0 24 24" class="sc-aXZVg gbRgLZ sc-hybRYi jLMZfj"><path d="M22.9 10.6l-3-8c-.1-.3-.5-.6-.9-.6H5c-.4 0-.8.3-.9.6l-3 8c-.2.4-.1.7.1 1 .2.2.5.4.8.4h1v9c0 .6.4 1 1 1h16c.6 0 1-.4 1-1v-9h1c.3 0 .6-.2.8-.4.2-.3.3-.6.1-1zm-2.3-.6h-2.8l-1.5-6h2l2.3 6zM8.3 10l1.5-6H11v6H8.3zM13 4h1.2l1.5 6H13V4zM5.7 4h2l-1.5 6H3.4l2.3-6zM14 20v-5h2v5h-2zm5 0h-1v-6c0-.6-.4-1-1-1h-4c-.6 0-1 .4-1 1v6H5v-8h14v8z"></path><path d="M7 18h3c.6 0 1-.4 1-1v-3c0-.6-.4-1-1-1H7c-.6 0-1 .4-1 1v3c0 .6.4 1 1 1z"></path></svg>